HIERARCHY
ROOT hips
{
  OFFSET 0 10.6860622 2.3727825e-15
  CHANNELS 6 Xposition Yposition Zposition Yrotation Xrotation Zrotation
  JOINT leftUpperLeg
  {
    OFFSET 0.6642549969 -0.9402397400000004 0
    CHANNELS 3 Yrotation Xrotation Zrotation
    JOINT leftLowerLeg
    {
      OFFSET 0 -3.997221335632195 0
      CHANNELS 3 Yrotation Xrotation Zrotation
      JOINT leftFoot
      {
        OFFSET -0.13777839790000004 -4.6145792000000005 -0.22186036399999998
        CHANNELS 3 Yrotation Xrotation Zrotation
        JOINT leftToes
        {
          OFFSET -0.03777410834999995 -0.9130806927000008 0.85230013
          CHANNELS 3 Yrotation Xrotation Zrotation
          End Site
          {
            OFFSET -0.03777410834999995 -0.9130806927000008 0.85230013
          }
        }
      }
    }
  }
  JOINT rightUpperLeg
  {
    OFFSET -0.6642778626 -0.9402397400000004 0
    CHANNELS 3 Yrotation Xrotation Zrotation
    JOINT rightLowerLeg
    {
      OFFSET 0 -3.997221452859387 0
      CHANNELS 3 Yrotation Xrotation Zrotation
      JOINT rightFoot
      {
        OFFSET 0.1377926176 -4.6145792000000005 -0.22185782299999995
        CHANNELS 3 Yrotation Xrotation Zrotation
        JOINT rightToes
        {
          OFFSET 0.037780746850000047 -0.9130806927000008 0.85230167
          CHANNELS 3 Yrotation Xrotation Zrotation
          End Site
          {
            OFFSET 0.037780746850000047 -0.9130806927000008 0.85230167
          }
        }
      }
    }
  }
  JOINT spine
  {
    OFFSET 0 0.13988381660000015 0
    CHANNELS 3 Yrotation Xrotation Zrotation
    JOINT chest
    {
      OFFSET 0 0.6191039003973773 0
      CHANNELS 3 Yrotation Xrotation Zrotation
      JOINT upperChest
      {
        OFFSET 0 0.9855186130586943 0
        CHANNELS 3 Yrotation Xrotation Zrotation
        JOINT leftShoulder
        {
          OFFSET 0.1807663869 1.5087829790000005 0
          CHANNELS 3 Yrotation Xrotation Zrotation
          JOINT leftUpperArm
          {
            OFFSET 0.5985063006419806 0 0
            CHANNELS 3 Yrotation Xrotation Zrotation
            JOINT leftLowerArm
            {
              OFFSET 2.2993332369501065 0 0
              CHANNELS 3 Yrotation Xrotation Zrotation
              JOINT leftHand
              {
                OFFSET 2.395047042602395 0 0
                CHANNELS 3 Yrotation Xrotation Zrotation
                JOINT leftIndexProximal
                {
                  OFFSET 0.5766295810000004 0.04556643899499946 0.17265095988184
                  CHANNELS 3 Yrotation Xrotation Zrotation
                  JOINT leftIndexIntermediate
                  {
                    OFFSET 0.2957229000000008 -0.019352197700001517 -0.007932640616999987
                    CHANNELS 3 Yrotation Xrotation Zrotation
                    JOINT leftIndexDistal
                    {
                      OFFSET 0.19008243099999922 -0.012484908149998475 -0.002786250786000012
                      CHANNELS 3 Yrotation Xrotation Zrotation
                      End Site
                      {
                        OFFSET 0.19008243099999922 -0.012484908149998475 -0.002786250786000012
                      }
                    }
                  }
                }
                JOINT leftMiddleProximal
                {
                  OFFSET 0.5834975091000001 0.0524350405149987 0.02204081888183999
                  CHANNELS 3 Yrotation Xrotation Zrotation
                  JOINT leftMiddleIntermediate
                  {
                    OFFSET 0.33880573540000003 -0.019871473270000717 -0.00000971183179999946
                    CHANNELS 3 Yrotation Xrotation Zrotation
                    JOINT leftMiddleDistal
                    {
                      OFFSET 0.20676022730000088 -0.012221336379999448 0.0001471936708000235
                      CHANNELS 3 Yrotation Xrotation Zrotation
                      End Site
                      {
                        OFFSET 0.20676022730000088 -0.012221336379999448 0.0001471936708000235
                      }
                    }
                  }
                }
                JOINT leftLittleProximal
                {
                  OFFSET 0.5344154683999995 -0.012880921405001189 -0.24414037221816004
                  CHANNELS 3 Yrotation Xrotation Zrotation
                  JOINT leftLittleIntermediate
                  {
                    OFFSET 0.21758961730000093 -0.011650919939999227 0.011893592810000034
                    CHANNELS 3 Yrotation Xrotation Zrotation
                    JOINT leftLittleDistal
                    {
                      OFFSET 0.1475273964999999 -0.008152365682999818 0.006001092492999946
                      CHANNELS 3 Yrotation Xrotation Zrotation
                      End Site
                      {
                        OFFSET 0.1475273964999999 -0.008152365682999818 0.006001092492999946
                      }
                    }
                  }
                }
                JOINT leftRingProximal
                {
                  OFFSET 0.5799399463000003 0.026911854694997794 -0.12150566991816003
                  CHANNELS 3 Yrotation Xrotation Zrotation
                  JOINT leftRingIntermediate
                  {
                    OFFSET 0.26167887460000006 -0.013480186499999602 0.010996293000000053
                    CHANNELS 3 Yrotation Xrotation Zrotation
                    JOINT leftRingDistal
                    {
                      OFFSET 0.17667108799999987 -0.008990287899999228 0.0055541023999999065
                      CHANNELS 3 Yrotation Xrotation Zrotation
                      End Site
                      {
                        OFFSET 0.17667108799999987 -0.008990287899999228 0.0055541023999999065
                      }
                    }
                  }
                }
                JOINT leftThumbProximal
                {
                  OFFSET 0.11018806699999972 -0.09448718900500053 0.17047963138184
                  CHANNELS 3 Yrotation Xrotation Zrotation
                  JOINT leftThumbIntermediate
                  {
                    OFFSET 0.31062601459999983 -0.08126270900000132 0.15443142000000007
                    CHANNELS 3 Yrotation Xrotation Zrotation
                    JOINT leftThumbDistal
                    {
                      OFFSET 0.21627175790000086 -0.08833193599999878 0.018771167799999988
                      CHANNELS 3 Yrotation Xrotation Zrotation
                      End Site
                      {
                        OFFSET 0.21627175790000086 -0.08833193599999878 0.018771167799999988
                      }
                    }
                  }
                }
              }
            }
          }
        }
        JOINT neck
        {
          OFFSET 0 1.5463305265074576 0
          CHANNELS 3 Yrotation Xrotation Zrotation
          JOINT head
          {
            OFFSET 0 0.8456443600000344 0
            CHANNELS 3 Yrotation Xrotation Zrotation
            JOINT leftEye
            {
              OFFSET 0.30408573140000006 0.5104519199999995 0.1276382305
              CHANNELS 3 Yrotation Xrotation Zrotation
              End Site
              {
                OFFSET 0.30408573140000006 0.5104519199999995 0.1276382305
              }
            }
            JOINT rightEye
            {
              OFFSET -0.30409491089999996 0.5104519199999995 0.1276379445
              CHANNELS 3 Yrotation Xrotation Zrotation
              End Site
              {
                OFFSET -0.30409491089999996 0.5104519199999995 0.1276379445
              }
            }
            JOINT jaw
            {
              OFFSET -3.155239131000001e-7 -0.11984121820000082 0.60178107
              CHANNELS 3 Yrotation Xrotation Zrotation
              End Site
              {
                OFFSET -3.155239131000001e-7 -0.11984121820000082 0.60178107
              }
            }
          }
        }
        JOINT rightShoulder
        {
          OFFSET -0.1807303465 1.5087829790000005 0
          CHANNELS 3 Yrotation Xrotation Zrotation
          JOINT rightUpperArm
          {
            OFFSET -0.5985063796536958 0 0
            CHANNELS 3 Yrotation Xrotation Zrotation
            JOINT rightLowerArm
            {
              OFFSET -2.2993322059002854 0 0
              CHANNELS 3 Yrotation Xrotation Zrotation
              JOINT rightHand
              {
                OFFSET -2.395045314457259 0 0
                CHANNELS 3 Yrotation Xrotation Zrotation
                JOINT rightIndexProximal
                {
                  OFFSET -0.5764487688300002 0.0441371204405987 0.17361932004999997
                  CHANNELS 3 Yrotation Xrotation Zrotation
                  JOINT rightIndexIntermediate
                  {
                    OFFSET -0.29573011380000047 -0.01934826376999843 -0.007698921482999974
                    CHANNELS 3 Yrotation Xrotation Zrotation
                    JOINT rightIndexDistal
                    {
                      OFFSET -0.19008373999999884 -0.012503266380000655 -0.0026365778999999897
                      CHANNELS 3 Yrotation Xrotation Zrotation
                      End Site
                      {
                        OFFSET -0.19008373999999884 -0.012503266380000655 -0.0026365778999999897
                      }
                    }
                  }
                }
                JOINT rightMiddleProximal
                {
                  OFFSET -0.5834852037300005 0.05211639405060153 0.02307162440000001
                  CHANNELS 3 Yrotation Xrotation Zrotation
                  JOINT rightMiddleIntermediate
                  {
                    OFFSET -0.33880114510000003 -0.019952774050000954 0.0002455003561999819
                    CHANNELS 3 Yrotation Xrotation Zrotation
                    JOINT rightMiddleDistal
                    {
                      OFFSET -0.20675694929999955 -0.012273788999999091 0.00030209124000002766
                      CHANNELS 3 Yrotation Xrotation Zrotation
                      End Site
                      {
                        OFFSET -0.20675694929999955 -0.012273788999999091 0.00030209124000002766
                      }
                    }
                  }
                }
                JOINT rightLittleProximal
                {
                  OFFSET -0.5346811737299992 -0.011214256288399227 -0.24363941305000003
                  CHANNELS 3 Yrotation Xrotation Zrotation
                  JOINT rightLittleIntermediate
                  {
                    OFFSET -0.21757715980000092 -0.011771559690000988 0.01201554387
                    CHANNELS 3 Yrotation Xrotation Zrotation
                    JOINT rightLittleDistal
                    {
                      OFFSET -0.1475201849000004 -0.00822055339600003 0.006082065407000015
                      CHANNELS 3 Yrotation Xrotation Zrotation
                      End Site
                      {
                        OFFSET -0.1475201849000004 -0.00822055339600003 0.006082065407000015
                      }
                    }
                  }
                }
                JOINT rightRingProximal
                {
                  OFFSET -0.5800810755299999 0.027657985680600072 -0.12066365025000003
                  CHANNELS 3 Yrotation Xrotation Zrotation
                  JOINT rightRingIntermediate
                  {
                    OFFSET -0.26166445029999974 -0.013623118409999302 0.011164098990000045
                    CHANNELS 3 Yrotation Xrotation Zrotation
                    JOINT rightRingDistal
                    {
                      OFFSET -0.17666387530000027 -0.009072900100000503 0.005668185599999959
                      CHANNELS 3 Yrotation Xrotation Zrotation
                      End Site
                      {
                        OFFSET -0.17666387530000027 -0.009072900100000503 0.005668185599999959
                      }
                    }
                  }
                }
                JOINT rightThumbProximal
                {
                  OFFSET -0.10997596379000074 -0.09577489355940072 0.16989765924999997
                  CHANNELS 3 Yrotation Xrotation Zrotation
                  JOINT rightThumbIntermediate
                  {
                    OFFSET -0.31036620999999986 -0.08229339117999834 0.15440884469999996
                    CHANNELS 3 Yrotation Xrotation Zrotation
                    JOINT rightThumbDistal
                    {
                      OFFSET -0.21631306399999906 -0.08825326400000111 0.018656797720000014
                      CHANNELS 3 Yrotation Xrotation Zrotation
                      End Site
                      {
                        OFFSET -0.21631306399999906 -0.08825326400000111 0.018656797720000014
                      }
                    }
                  }
                }
              }
            }
          }
        }
      }
    }
  }
}
MOTION
Frames: 9
Frame Time: 0.03333333333333333
2.683922713060767e-7 -0.14269719245438817 -8.589850895210764 0 39.997599049757774 0 -13.1076192817086 -37.23906058796908 17.32497575075187 0.7594861756762582 5.6317380739232075 2.464290117370806 8.859871014091393 -3.4180716961197426 3.6397848854772374 0 0 0 1.391090065193464 -42.719923347373694 -5.498836279929421 -0.361308677642451 6.607405158269591 -5.863467801527585 1.2590175544937916 -5.554011035604677 -1.3561282390391975 0 0 0 -2.5853432720392036 56.56582652979962 -3.59566265842404 -0.6461167414571191 6.692397682744205 -1.3830340743886935 0 0 0 43.38347826459185 30.741136708328444 -35.337500840890826 -1.1744644599560015 46.442779814860366 -36.74845400248488 -3.335551772717918 -0.39715965760994054 2.8859774253724293 13.041003494768582 1.3323634156528805 -5.409908672323581 0 0 0 0 0 0 0 0 0 0 0 0 0 0 0 0 0 0 0 0 0 0 0 0 0 0 0 0 0 0 0 0 0 0 0 0 0 0 0 0 0 0 0 0 0 0 -43.69930353287936 0 0 -10.815370642238191 0 0 0 0 0 0 0 0 0 0 -41.875482138016345 29.130450444004836 35.44095249973733 0.8564235983684989 46.133364856032905 35.40899531419952 11.592780145114096 -0.2182576486338856 0.4014069044589048 13.050138337450878 -1.4435891991309127 7.0472145130726025 0 0 0 0 0 0 0 0 0 0 0 0 0 0 0 0 0 0 0 0 0 0 0 0 0 0 0 0 0 0 0 0 0 0 0 0 0 0 0 0 0 0 0 0 0
2.683922713060767e-7 -0.14269719245438817 -8.589850895210764 0 39.997599049757774 0 -13.1076192817086 -37.239064877655515 17.324976774518838 0.745307036303471 5.695326338638637 2.5942393717726953 8.859872704270854 -3.4180716961197426 3.6397848854772374 0 0 0 1.733455923956049 -42.681632187297176 -5.666295617189693 -0.361308677642451 6.607405158269591 -5.863467801527585 0.9885449061004452 -5.535780908513265 -1.307568727021483 0 0 0 -2.595751740983906 56.71566827725645 -3.6080769293776416 -0.6457120352058021 6.3995090845938725 -1.3796958368311436 0 0 0 43.47862172861495 30.875456479709243 -35.26785350565013 -1.1705730618362993 46.444692876098955 -36.73114064093887 -3.335551772717918 -0.39715965760994054 2.8859774253724293 13.041003494768582 1.3323634156528805 -5.409908672323581 0 0 0 0 0 0 0 0 0 0 0 0 0 0 0 0 0 0 0 0 0 0 0 0 0 0 0 0 0 0 0 0 0 0 0 0 0 0 0 0 0 0 0 0 0 0 -43.42405331429964 0 0 -10.30568426469419 0 0 0 0 0 0 0 0 0 0 -41.955073735011865 29.260300213906078 35.38035388797952 0.8564235983684989 46.133364856032905 35.40899531419952 11.592780145114096 -0.2182576486338856 0.4014069044589048 13.050138337450878 -1.4435891991309127 7.0472145130726025 0 0 0 0 0 0 0 0 0 0 0 0 0 0 0 0 0 0 0 0 0 0 0 0 0 0 0 0 0 0 0 0 0 0 0 0 0 0 0 0 0 0 0 0 0
2.683922713060767e-7 -0.14269719245438817 -8.589850895210764 0 39.997599049757774 0 -13.1076192817086 -37.23906058796908 17.32497575075187 0.7312706842739104 5.758940520628051 2.724188007240468 8.859872704270854 -3.4180716961197426 3.6397857390471753 0 0 0 2.0754453852346164 -42.64260785688244 -5.833330855523326 -0.361308677642451 6.607405158269591 -5.863467801527585 0.7181030527218756 -5.517323182711023 -1.259098849387115 0 0 0 -2.6062627682085866 56.86550954566087 -3.6205915016723 -0.6453245763073844 6.106630327058335 -1.376361667611288 0 0 0 43.57406055755194 31.009681885151927 -35.19786549341531 -1.1666823740313692 46.4465960917651 -36.713820137712055 -3.335551772717918 -0.39715965760994054 2.8859774253724293 13.041003494768582 1.3323634156528805 -5.409908672323581 0 0 0 0 0 0 0 0 0 0 0 0 0 0 0 0 0 0 0 0 0 0 0 0 0 0 0 0 0 0 0 0 0 0 0 0 0 0 0 0 0 0 0 0 0 0 -43.1488085001114 0 0 -9.79604298598221 0 0 0 0 0 0 0 0 0 0 -42.03492571153204 29.390077935015714 35.31947368865647 0.8564235983684989 46.133364856032905 35.40899531419952 11.592779308750853 -0.2182576486338856 0.4014069044589048 13.050138337450878 -1.4435891991309127 7.0472145130726025 0 0 0 0 0 0 0 0 0 0 0 0 0 0 0 0 0 0 0 0 0 0 0 0 0 0 0 0 0 0 0 0 0 0 0 0 0 0 0 0 0 0 0 0 0
2.683922713060767e-7 -0.14269719245438817 -8.589850895210764 0 39.997599049757774 0 -13.1076192817086 -37.23906058796908 17.32497575075187 0.7173795794654297 5.822589718095503 2.8541326307994086 8.859872704270854 -3.4180716961197426 3.6397848854772374 0 0 0 2.417053319510139 -42.60286099663747 -5.999942185284058 -0.361308677642451 6.607405158269591 -5.863467801527585 0.4476961342735618 -5.498637019843368 -1.2107200770588522 0 0 0 -2.616876704314657 57.01535136024561 -3.633208637923428 -0.6449545436921045 5.813764903517204 -1.3730307129701331 0 0 0 43.669845838814354 31.143797303656687 -35.12749242690827 -1.162787953024078 46.448509287031165 -36.69651027392686 -3.335551772717918 -0.39715965760994054 2.8859774253724293 13.041003494768582 1.3323634156528805 -5.409908672323581 0 0 0 0 0 0 0 0 0 0 0 0 0 0 0 0 0 0 0 0 0 0 0 0 0 0 0 0 0 0 0 0 0 0 0 0 0 0 0 0 0 0 0 0 0 0 -42.87359066795204 0 0 -9.286474706478002 0 0 0 0 0 0 0 0 0 0 -42.11502686030266 29.519780074318472 35.258318611942634 0.8564235983684989 46.133364856032905 35.40899531419952 11.592780145114096 -0.2182576486338856 0.4014069044589048 13.050138337450878 -1.4435891991309127 7.0472145130726025 0 0 0 0 0 0 0 0 0 0 0 0 0 0 0 0 0 0 0 0 0 0 0 0 0 0 0 0 0 0 0 0 0 0 0 0 0 0 0 0 0 0 0 0 0
2.683922713060767e-7 -0.14269719245438817 -8.589850895210764 0 39.997599049757774 0 -13.1076192817086 -37.23906058796908 17.32497575075187 0.7036313985497029 5.886269300793511 2.984076560147381 8.859872704270854 -3.4180716961197426 3.6397848854772374 0 0 0 2.758264188786655 -42.56237442326026 -6.16610555763954 -0.361308677642451 6.607405158269591 -5.863467801527585 0.1773273729730623 -5.479726727940092 -1.1624356213780387 0 0 0 -2.6275913376083206 57.16517586358252 -3.6459238975688337 -0.6446026459289964 5.520915868748926 -1.3697035888939655 0 0 0 43.765954935490576 31.277810996849002 -35.05677455223772 -1.1588888454197914 46.45041263604859 -36.67918236319896 -3.335551772717918 -0.39715965760994054 2.8859774253724293 13.041003494768582 1.3323634156528805 -5.409908672323581 0 0 0 0 0 0 0 0 0 0 0 0 0 0 0 0 0 0 0 0 0 0 0 0 0 0 0 0 0 0 0 0 0 0 0 0 0 0 0 0 0 0 0 0 0 0 -42.59836531355853 0 0 -8.777000217426334 0 0 0 0 0 0 0 0 0 0 -42.19539890333861 29.649397183312484 35.19685574999746 0.8564235983684989 46.133364856032905 35.40899531419952 11.592780145114096 -0.2182576486338856 0.4014069044589048 13.050138337450878 -1.4435891991309127 7.0472145130726025 0 0 0 0 0 0 0 0 0 0 0 0 0 0 0 0 0 0 0 0 0 0 0 0 0 0 0 0 0 0 0 0 0 0 0 0 0 0 0 0 0 0 0 0 0
2.683922713060767e-7 -0.14269719245438817 -8.589850895210764 0 39.997599049757774 0 -13.1076192817086 -37.239064877655515 17.324976774518838 0.6900262122194494 5.949975924193737 3.1140164713772354 8.859872704270854 -3.4180716961197426 3.6397848854772374 0 0 0 3.099073830119507 -42.521177357810785 -6.33182564334699 -0.361308677642451 6.607405158269591 -5.863467801527585 -0.09300004405548759 -5.460591897433109 -1.1142450485746278 0 0 0 -2.638414655743304 57.3150154953578 -3.658746302259378 -0.6442669911424225 5.2280884131198695 -1.3663812075392339 0 0 0 43.86239354330574 31.41172726760522 -34.98569263081167 -1.1549910682556688 46.452316051582095 -36.66186212315271 -3.335551772717918 -0.39715965760994054 2.8859774253724293 13.041003494768582 1.3323634156528805 -5.409908672323581 0 0 0 0 0 0 0 0 0 0 0 0 0 0 0 0 0 0 0 0 0 0 0 0 0 0 0 0 0 0 0 0 0 0 0 0 0 0 0 0 0 0 0 0 0 0 -42.32317241753373 0 0 -8.267632410843177 0 0 0 0 0 0 0 0 0 0 -42.27602423344631 29.778945337080078 35.13511632817622 0.8564235983684989 46.133364856032905 35.40899531419952 11.592779308750853 -0.2182576486338856 0.4014069044589048 13.050138337450878 -1.4435891991309127 7.0472145130726025 0 0 0 0 0 0 0 0 0 0 0 0 0 0 0 0 0 0 0 0 0 0 0 0 0 0 0 0 0 0 0 0 0 0 0 0 0 0 0 0 0 0 0 0 0
2.683922713060767e-7 -0.14269719245438817 -8.589850895210764 0 39.997599049757774 0 -13.1076192817086 -37.23906058796908 17.32497575075187 0.6765657226774466 6.013714398161524 3.2439548274683756 8.859872704270854 -3.4180716961197426 3.6397848854772374 0 0 0 3.4394699403770734 -42.47925266200823 -6.497087527697202 -0.361308677642451 6.607405158269591 -5.863467801527585 -0.36328298165925377 -5.441231261272994 -1.0661503896494335 0 0 0 -2.649340851979003 57.46483337271867 -3.671670601788089 -0.6439495111673741 4.935286430929325 -1.3630616446105852 0 0 0 43.95915350806479 31.545526395749857 -34.9142394730417 -1.1510993133309497 46.45422449071214 -36.6445456183594 -3.335551772717918 -0.39715965760994054 2.8859774253724293 13.041003494768582 1.3323634156528805 -5.409908672323581 0 0 0 0 0 0 0 0 0 0 0 0 0 0 0 0 0 0 0 0 0 0 0 0 0 0 0 0 0 0 0 0 0 0 0 0 0 0 0 0 0 0 0 0 0 0 -42.04799145089812 0 0 -7.7583978901397295 0 0 0 0 0 0 0 0 0 0 -42.35692227619374 29.908409172614718 35.07308931318477 0.8564235983684989 46.133364856032905 35.40899531419952 11.592780145114096 -0.2182576486338856 0.4014069044589048 13.050138337450878 -1.4435891991309127 7.0472145130726025 0 0 0 0 0 0 0 0 0 0 0 0 0 0 0 0 0 0 0 0 0 0 0 0 0 0 0 0 0 0 0 0 0 0 0 0 0 0 0 0 0 0 0 0 0
2.683922713060767e-7 -0.14269719245438817 -8.589850895210764 0 39.997599049757774 0 -13.1076192817086 -37.23906058796908 17.32497575075187 0.6632499275828203 6.0774809490327595 3.3738900334441344 8.859872704270854 -3.4180716961197426 3.6397857390471753 0 0 0 3.779441369637333 -42.436601775573735 -6.661881684529227 -0.361308677642451 6.607405158269591 -5.863467801527585 -0.633518294157441 -5.421646554311342 -1.0181539964824597 0 0 0 -2.660375554080312 57.614649386166754 -3.6847019578516487 -0.6436481605843611 4.642512524741094 -1.3597454104059763 0 0 0 44.056257439330594 31.67922466105656 -34.84242427764639 -1.147191366657015 46.45611812498945 -36.62721403164668 -3.335551772717918 -0.39715965760994054 2.8859774253724293 13.041003494768582 1.3323634156528805 -5.409908672323581 0 0 0 0 0 0 0 0 0 0 0 0 0 0 0 0 0 0 0 0 0 0 0 0 0 0 0 0 0 0 0 0 0 0 0 0 0 0 0 0 0 0 0 0 0 0 -41.772820531458564 0 0 -7.249312805094051 0 0 0 0 0 0 0 0 0 0 -42.43808097854039 30.037796913475624 35.0107701341476 0.8564235983684989 46.133364856032905 35.40899531419952 11.592780981477336 -0.21825864915713658 0.4014069044589048 13.050138337450878 -1.4435891991309127 7.0472145130726025 0 0 0 0 0 0 0 0 0 0 0 0 0 0 0 0 0 0 0 0 0 0 0 0 0 0 0 0 0 0 0 0 0 0 0 0 0 0 0 0 0 0 0 0 0
2.683922713060767e-7 -0.14269719245438817 -8.589850895210764 0 39.997599049757774 0 -13.1076192817086 -37.239064877655515 17.324976774518838 0.6500781816839847 6.141276524436163 3.503822598524635 8.859872704270854 -3.4180716961197426 3.6397848854772374 0 0 0 4.118985494451552 -42.39324002964685 -6.826205482688284 -0.361308677642451 6.607405158269591 -5.863467801527585 -0.903702717826024 -5.401839082479061 -0.9702561256875809 0 0 0 -2.6715212439362164 57.76446454324094 -3.6978427311417525 -0.6433648515514419 4.349771006036937 -1.3564325617186672 0 0 0 44.15369998066778 31.81281431992084 -34.770243787893165 -1.1432939552318204 46.45802669736989 -36.60989704316495 -3.335551772717918 -0.39715965760994054 2.8859774253724293 13.041003494768582 1.3323634156528805 -5.409908672323581 0 0 0 0 0 0 0 0 0 0 0 0 0 0 0 0 0 0 0 0 0 0 0 0 0 0 0 0 0 0 0 0 0 0 0 0 0 0 0 0 0 0 0 0 0 0 -41.49769882028364 0 0 -6.7404018468408875 0 0 0 0 0 0 0 0 0 0 -42.519511081374624 30.167104972814663 34.94815222959782 0.8564235983684989 46.133364856032905 35.40899531419952 11.592779308750853 -0.2182576486338856 0.4014069044589048 13.050138337450878 -1.4435891991309127 7.0472145130726025 0 0 0 0 0 0 0 0 0 0 0 0 0 0 0 0 0 0 0 0 0 0 0 0 0 0 0 0 0 0 0 0 0 0 0 0 0 0 0 0 0 0 0 0 0
